REM DIRINDEX 1\2,1\3,1\4,1\5,1\6
REM DIRNAME cjc129,folder01,folder02,folder03,folder04,folder05
TITLE ""
FILE "DISC3Track28.mp3" MP3
  TRACK 01 AUDIO
    TITLE "0:"
    INDEX 01 00:00:00
  TRACK 02 AUDIO
    TITLE "3:cjc129_2833"
    INDEX 01 00:00:05
  TRACK 03 AUDIO
    TITLE "0:"
    INDEX 01 00:01:40
  TRACK 04 AUDIO
    TITLE "5:cjc129_2834"
    INDEX 01 00:01:73
  TRACK 05 AUDIO
    TITLE "0:"
    INDEX 01 00:05:48
  TRACK 06 AUDIO
    TITLE "4:cjc129_2835"
    INDEX 01 00:06:41
  TRACK 07 AUDIO
    TITLE "0:"
    INDEX 01 00:08:01
  TRACK 08 AUDIO
    TITLE "6:cjc129_2836"
    INDEX 01 00:08:34
  TRACK 09 AUDIO
    TITLE "0:"
    INDEX 01 00:12:67
  TRACK 10 AUDIO
    TITLE "3:cjc129_2837"
    INDEX 01 00:14:43
  TRACK 11 AUDIO
    TITLE "0:"
    INDEX 01 00:16:04
  TRACK 12 AUDIO
    TITLE "5:cjc129_2838"
    INDEX 01 00:16:36
  TRACK 13 AUDIO
    TITLE "0:"
    INDEX 01 00:20:63
  TRACK 14 AUDIO
    TITLE "4:cjc129_2839"
    INDEX 01 00:21:53
  TRACK 15 AUDIO
    TITLE "0:"
    INDEX 01 00:23:14
  TRACK 16 AUDIO
    TITLE "6:cjc129_2840"
    INDEX 01 00:23:46
  TRACK 17 AUDIO
    TITLE "0:"
    INDEX 01 00:27:71
  TRACK 18 AUDIO
    TITLE "3:cjc129_2841"
    INDEX 01 00:29:44
  TRACK 19 AUDIO
    TITLE "0:"
    INDEX 01 00:31:00
  TRACK 20 AUDIO
    TITLE "5:cjc129_2842"
    INDEX 01 00:31:31
  TRACK 21 AUDIO
    TITLE "0:"
    INDEX 01 00:35:08
  TRACK 22 AUDIO
    TITLE "4:cjc129_2843"
    INDEX 01 00:35:74
  TRACK 23 AUDIO
    TITLE "0:"
    INDEX 01 00:37:30
  TRACK 24 AUDIO
    TITLE "6:cjc129_2844"
    INDEX 01 00:37:61
  TRACK 25 AUDIO
    TITLE "0:"
    INDEX 01 00:42:61
  TRACK 26 AUDIO
    TITLE "3:cjc129_2845"
    INDEX 01 00:44:34
  TRACK 27 AUDIO
    TITLE "0:"
    INDEX 01 00:45:71
  TRACK 28 AUDIO
    TITLE "5:cjc129_2846"
    INDEX 01 00:46:25
  TRACK 29 AUDIO
    TITLE "0:"
    INDEX 01 00:49:25
  TRACK 30 AUDIO
    TITLE "4:cjc129_2847"
    INDEX 01 00:50:17
  TRACK 31 AUDIO
    TITLE "0:"
    INDEX 01 00:51:54
  TRACK 32 AUDIO
    TITLE "6:cjc129_2848"
    INDEX 01 00:52:08
  TRACK 33 AUDIO
    TITLE "0:"
    INDEX 01 00:56:59
  TRACK 34 AUDIO
    TITLE "3:cjc129_2849"
    INDEX 01 00:58:32
  TRACK 35 AUDIO
    TITLE "0:"
    INDEX 01 01:00:00
  TRACK 36 AUDIO
    TITLE "5:cjc129_2850"
    INDEX 01 01:00:33
  TRACK 37 AUDIO
    TITLE "0:"
    INDEX 01 01:06:71
  TRACK 38 AUDIO
    TITLE "4:cjc129_2851"
    INDEX 01 01:07:61
  TRACK 39 AUDIO
    TITLE "0:"
    INDEX 01 01:09:28
  TRACK 40 AUDIO
    TITLE "6:cjc129_2852"
    INDEX 01 01:09:61
  TRACK 41 AUDIO
    TITLE "0:"
    INDEX 01 01:14:08
  TRACK 42 AUDIO
    TITLE "3:cjc129_2853"
    INDEX 01 01:15:56
  TRACK 43 AUDIO
    TITLE "0:"
    INDEX 01 01:17:08
  TRACK 44 AUDIO
    TITLE "5:cjc129_2854"
    INDEX 01 01:17:37
  TRACK 45 AUDIO
    TITLE "0:"
    INDEX 01 01:19:38
  TRACK 46 AUDIO
    TITLE "4:cjc129_2855"
    INDEX 01 01:20:26
  TRACK 47 AUDIO
    TITLE "0:"
    INDEX 01 01:21:55
  TRACK 48 AUDIO
    TITLE "6:cjc129_2856"
    INDEX 01 01:22:09
  TRACK 49 AUDIO
    TITLE "0:"
    INDEX 01 01:28:14
  TRACK 50 AUDIO
    TITLE "2:cjc129_2857"
    INDEX 01 01:29:62
  TRACK 51 AUDIO
    TITLE "0:"
    INDEX 01 01:34:05
  TRACK 52 AUDIO
    TITLE "3:cjc129_2858"
    INDEX 01 01:35:14
  TRACK 53 AUDIO
    TITLE "0:"
    INDEX 01 01:37:22
  TRACK 54 AUDIO
    TITLE "5:cjc129_2859"
    INDEX 01 01:37:54
  TRACK 55 AUDIO
    TITLE "0:"
    INDEX 01 01:41:48
  TRACK 56 AUDIO
    TITLE "4:cjc129_2860"
    INDEX 01 01:42:35
  TRACK 57 AUDIO
    TITLE "0:"
    INDEX 01 01:44:44
  TRACK 58 AUDIO
    TITLE "6:cjc129_2861"
    INDEX 01 01:44:73
  TRACK 59 AUDIO
    TITLE "0:"
    INDEX 01 01:48:63
  TRACK 60 AUDIO
    TITLE "3:cjc129_2862"
    INDEX 01 01:50:37
  TRACK 61 AUDIO
    TITLE "0:"
    INDEX 01 01:52:18
  TRACK 62 AUDIO
    TITLE "5:cjc129_2863"
    INDEX 01 01:52:48
  TRACK 63 AUDIO
    TITLE "0:"
    INDEX 01 01:56:16
  TRACK 64 AUDIO
    TITLE "4:cjc129_2864"
    INDEX 01 01:57:06
  TRACK 65 AUDIO
    TITLE "0:"
    INDEX 01 01:58:60
  TRACK 66 AUDIO
    TITLE "6:cjc129_2865"
    INDEX 01 01:59:16
  TRACK 67 AUDIO
    TITLE "0:"
    INDEX 01 02:03:06
